<svg viewBox="0 0 16 16" width="16" height="16" xmlns="http://www.w3.org/2000/svg">
  <path d="M13.4 8.404c0 1.935-1.01 3.697-2.656 4.564l-.376.173a.922.922 0 0 1-.404.086.633.633 0 0 1-.578-.317c-.086-.174-.115-.347-.086-.549a.695.695 0 0 1 .346-.462c.953-.433 1.589-1.415 1.589-2.513v-2.83c0-1.098-.607-2.08-1.56-2.513 0 0-.289-.144-.346-.462a.89.89 0 0 1 .086-.549.633.633 0 0 1 .578-.317.8.8 0 0 1 .375.086s.347.174.376.174C12.39 3.84 13.4 5.603 13.4 7.538v.866zm-7.104 3.524a.695.695 0 0 1 .347.462.89.89 0 0 1-.087.549.633.633 0 0 1-.578.317.8.8 0 0 1-.375-.086l-.376-.174C3.581 12.13 2.57 10.397 2.57 8.433v-.808c0-1.935 1.011-3.697 2.657-4.564.03 0 .376-.173.376-.173a.89.89 0 0 1 .375-.087c.26 0 .462.116.578.318.087.173.115.347.087.549-.058.318-.347.462-.347.462-.953.433-1.56 1.415-1.56 2.513v2.83c-.028 1.04.607 2.022 1.56 2.455zM0 8a8 8 0 0 0 8 8 8 8 0 0 0 8-8 8 8 0 0 0-8-8 8 8 0 0 0-8 8z" fill="#000000" fill-rule="nonzero"/>
</svg>
