<svg width="23" height="24" viewBox="0 0 23 24" fill="none" xmlns="http://www.w3.org/2000/svg">
<path d="M2.26562 11.1094C2.26562 11.7188 2.26562 12.3281 2.26562 12.8906L0.8125 13.7344C0.625 13.875 0.4375 14.0625 0.34375 14.2969C0.25 14.5781 0.203125 14.8125 0.25 15C0.8125 17.0156 1.84375 18.75 3.29688 20.2031C3.48438 20.3906 3.67188 20.5312 3.90625 20.5312C4.1875 20.5781 4.42188 20.5312 4.65625 20.3906L6.10938 19.5469C6.625 19.9219 7.14062 20.2031 7.65625 20.4375V22.125C7.65625 22.4062 7.75 22.6875 7.89062 22.875C8.07812 23.0625 8.26562 23.2031 8.5 23.25C10.5156 23.8125 12.5312 23.8125 14.5 23.25C14.7812 23.2031 14.9688 23.0625 15.1094 22.875C15.2969 22.6875 15.3438 22.4062 15.3438 22.125V20.4375C15.9062 20.2031 16.4219 19.9219 16.8906 19.5469L18.3438 20.3906C18.625 20.5312 18.8594 20.5781 19.0938 20.5312C19.375 20.5312 19.5625 20.3906 19.7031 20.2031C21.2031 18.75 22.1875 17.0156 22.75 15C22.8438 14.8125 22.7969 14.5781 22.7031 14.2969C22.6094 14.0625 22.4219 13.875 22.1875 13.7344L20.7344 12.8906C20.7812 12.3281 20.7812 11.7188 20.7344 11.1094L22.1875 10.2656C22.4219 10.1719 22.6094 9.98438 22.7031 9.70312C22.7969 9.46875 22.8438 9.23438 22.75 9C22.1875 7.03125 21.2031 5.29688 19.7031 3.79688C19.5625 3.60938 19.375 3.51562 19.0938 3.46875C18.8594 3.46875 18.625 3.51562 18.3438 3.60938L16.8906 4.45312C16.4219 4.125 15.9062 3.84375 15.3438 3.5625V1.875C15.3438 1.59375 15.2969 1.35938 15.1094 1.17188C14.9688 0.984375 14.7812 0.84375 14.5 0.75C12.5312 0.234375 10.5156 0.234375 8.5 0.75C8.26562 0.84375 8.07812 0.984375 7.89062 1.17188C7.75 1.35938 7.65625 1.59375 7.65625 1.875V3.5625C7.14062 3.84375 6.625 4.125 6.10938 4.45312L4.65625 3.60938C4.42188 3.51562 4.1875 3.46875 3.90625 3.46875C3.67188 3.51562 3.48438 3.60938 3.29688 3.79688C1.84375 5.29688 0.8125 7.03125 0.25 9C0.203125 9.23438 0.25 9.46875 0.34375 9.70312C0.4375 9.98438 0.625 10.1719 0.8125 10.2656L2.26562 11.1094ZM4.75 14.0625C4.5625 13.125 4.46875 12.4219 4.46875 12C4.46875 11.625 4.5625 10.9219 4.75 9.9375L2.6875 8.76562C3.0625 7.78125 3.625 6.84375 4.28125 6L6.34375 7.17188C7.09375 6.5625 7.65625 6.14062 8.03125 5.95312C8.40625 5.76562 9.01562 5.48438 9.90625 5.10938V2.76562C10.9844 2.57812 12.0625 2.57812 13.0938 2.76562V5.10938C14.0312 5.48438 14.6406 5.76562 15.0156 5.95312C15.3906 6.14062 15.9062 6.5625 16.6562 7.17188L18.7188 6C19.4219 6.84375 19.9375 7.78125 20.3125 8.76562L18.25 9.9375C18.4375 10.9219 18.5312 11.625 18.5312 12C18.5312 12.4219 18.4375 13.125 18.25 14.0625L20.3125 15.2344C19.9375 16.2656 19.4219 17.1562 18.7188 18L16.6562 16.8281C15.9062 17.4844 15.3906 17.9062 15.0156 18.0938C14.6406 18.2812 14.0312 18.5625 13.0938 18.8906V21.2344C12.0625 21.4219 10.9844 21.4219 9.90625 21.2344V18.8906C9.01562 18.5625 8.40625 18.2812 8.03125 18.0938C7.65625 17.9062 7.09375 17.4844 6.34375 16.8281L4.28125 18C3.625 17.1562 3.0625 16.2656 2.6875 15.2344L4.75 14.0625ZM11.5 7.5C10.2812 7.5 9.20312 7.96875 8.3125 8.8125C7.46875 9.70312 7 10.7812 7 12C7 13.2656 7.46875 14.3438 8.3125 15.1875C9.20312 16.0781 10.2812 16.5 11.5 16.5C12.7656 16.5 13.8438 16.0781 14.6875 15.1875C15.5781 14.3438 16 13.2656 16 12C16 10.7812 15.5781 9.70312 14.6875 8.8125C13.8438 7.96875 12.7656 7.5 11.5 7.5ZM11.5 14.25C10.8906 14.25 10.375 14.0625 9.90625 13.5938C9.48438 13.1719 9.25 12.6562 9.25 12C9.25 11.3906 9.48438 10.875 9.90625 10.4062C10.375 9.98438 10.8906 9.75 11.5 9.75C12.1562 9.75 12.6719 9.98438 13.0938 10.4062C13.5625 10.875 13.75 11.3906 13.75 12C13.75 12.6562 13.5625 13.1719 13.0938 13.5938C12.6719 14.0625 12.1562 14.25 11.5 14.25Z" fill="white" fill-opacity="0.9"/>
</svg>
