<svg width="24" height="24" viewBox="0 0 24 24" fill="none" xmlns="http://www.w3.org/2000/svg">
<path d="M12 7.82812L15.0469 12.4688H8.95312L12 7.82812ZM23.625 12C23.625 14.0938 23.0938 16.0312 22.0312 17.8125C21 19.5938 19.5938 21 17.8125 22.0312C16.0312 23.0938 14.0938 23.625 12 23.625C9.90625 23.625 7.96875 23.0938 6.1875 22.0312C4.40625 21 2.98438 19.5938 1.92188 17.8125C0.890625 16.0312 0.375 14.0938 0.375 12C0.375 9.90625 0.890625 7.96875 1.92188 6.1875C2.98438 4.40625 4.40625 3 6.1875 1.96875C7.96875 0.90625 9.90625 0.375 12 0.375C14.0938 0.375 16.0312 0.90625 17.8125 1.96875C19.5938 3 21 4.40625 22.0312 6.1875C23.0938 7.96875 23.625 9.90625 23.625 12ZM18.9375 15.8906L12 5.39062L5.0625 15.8906H6.46875L8.0625 13.4531H15.9375L17.5312 15.8906H18.9375Z" fill="#00BBE4"/>
</svg>
