<svg width="25" height="24" viewBox="0 0 25 24" fill="none" xmlns="http://www.w3.org/2000/svg">
<path d="M12.5 4.875C11.2812 4.875 10.2031 5.34375 9.3125 6.1875C8.46875 7.07812 8 8.15625 8 9.375C8 10.6406 8.46875 11.7188 9.3125 12.5625C10.2031 13.4531 11.2812 13.875 12.5 13.875C13.7656 13.875 14.8438 13.4531 15.6875 12.5625C16.5781 11.7188 17 10.6406 17 9.375C17 8.15625 16.5781 7.07812 15.6875 6.1875C14.8438 5.34375 13.7656 4.875 12.5 4.875ZM12.5 11.625C11.8906 11.625 11.375 11.4375 10.9062 10.9688C10.4844 10.5469 10.25 10.0312 10.25 9.375C10.25 8.76562 10.4844 8.25 10.9062 7.78125C11.375 7.35938 11.8906 7.125 12.5 7.125C13.1562 7.125 13.6719 7.35938 14.0938 7.78125C14.5625 8.25 14.75 8.76562 14.75 9.375C14.75 10.0312 14.5625 10.5469 14.0938 10.9688C13.6719 11.4375 13.1562 11.625 12.5 11.625ZM12.5 0.375C10.4375 0.375 8.46875 0.9375 6.6875 1.96875C4.90625 3 3.5 4.40625 2.46875 6.1875C1.4375 7.96875 0.875 9.9375 0.875 12C0.875 14.1094 1.4375 16.0312 2.46875 17.8125C3.5 19.5938 4.90625 21.0469 6.6875 22.0781C8.46875 23.1094 10.4375 23.625 12.5 23.625C14.6094 23.625 16.5312 23.1094 18.3125 22.0781C20.0938 21.0469 21.5469 19.5938 22.5781 17.8125C23.6094 16.0312 24.125 14.1094 24.125 12C24.125 9.9375 23.6094 7.96875 22.5781 6.1875C21.5469 4.40625 20.0938 3 18.3125 1.96875C16.5312 0.9375 14.6094 0.375 12.5 0.375ZM12.5 21.375C11.375 21.375 10.25 21.1875 9.21875 20.8125C8.1875 20.4375 7.25 19.875 6.40625 19.125C6.78125 18.5625 7.25 18.1406 7.8125 17.8125C8.375 17.4844 8.98438 17.2969 9.64062 17.25C10.625 17.5781 11.5625 17.7188 12.5 17.7188C13.4375 17.7188 14.375 17.5781 15.3125 17.25C16.0156 17.2969 16.6719 17.4844 17.2344 17.8125C17.7969 18.1406 18.2656 18.5625 18.5938 19.125C17.75 19.875 16.8125 20.4375 15.7812 20.8125C14.75 21.1875 13.6719 21.375 12.5 21.375ZM4.85938 17.4375C3.73438 15.8438 3.125 14.0156 3.125 12C3.125 10.3125 3.54688 8.76562 4.39062 7.3125C5.23438 5.90625 6.40625 4.73438 7.8125 3.89062C9.26562 3.04688 10.8125 2.625 12.5 2.625C14.1875 2.625 15.7812 3.04688 17.1875 3.89062C18.6406 4.73438 19.7656 5.90625 20.6094 7.3125C21.4531 8.76562 21.875 10.3125 21.875 12C21.875 14.0156 21.3125 15.8438 20.1406 17.4375C19.5781 16.6875 18.8281 16.125 17.9844 15.6562C17.1406 15.2344 16.2031 15 15.2188 15C15.125 15 14.8906 15.0469 14.5625 15.1406C13.8125 15.375 13.1562 15.4688 12.5 15.4688C11.8906 15.4688 11.1875 15.375 10.4375 15.1406C10.1562 15.0469 9.92188 15 9.78125 15C8.84375 15 7.90625 15.2344 7.0625 15.6562C6.21875 16.125 5.46875 16.6875 4.85938 17.4375Z" fill="white" fill-opacity="0.9"/>
</svg>
