<svg width="25" height="18" viewBox="0 0 25 18" fill="none" xmlns="http://www.w3.org/2000/svg">
<path d="M5 0C3.73438 0 2.65625 0.46875 1.8125 1.3125C0.921875 2.20312 0.5 3.28125 0.5 4.5V13.5C0.5 14.7656 0.921875 15.8438 1.8125 16.6875C2.65625 17.5781 3.73438 18 5 18H8.9375C9.07812 18 9.21875 17.9531 9.3125 17.8594C9.40625 17.7656 9.5 17.625 9.5 17.4375V16.3125C9.5 16.1719 9.40625 16.0312 9.3125 15.9375C9.21875 15.8438 9.07812 15.75 8.9375 15.75H5C4.34375 15.75 3.82812 15.5625 3.40625 15.0938C2.9375 14.6719 2.75 14.1562 2.75 13.5V4.5C2.75 3.89062 2.9375 3.375 3.40625 2.90625C3.82812 2.48438 4.34375 2.25 5 2.25H8.9375C9.07812 2.25 9.21875 2.20312 9.3125 2.10938C9.40625 2.01562 9.5 1.875 9.5 1.6875V0.5625C9.5 0.421875 9.40625 0.28125 9.3125 0.1875C9.21875 0.09375 9.07812 0 8.9375 0H5ZM15.8281 0.890625V0.9375C15.9219 0.84375 16.0625 0.75 16.25 0.75C16.3906 0.75 16.5312 0.796875 16.625 0.890625L24.3594 8.57812C24.4531 8.71875 24.5 8.85938 24.5 9C24.5 9.1875 24.4531 9.28125 24.3594 9.375L16.625 17.0625C16.5312 17.2031 16.3906 17.25 16.25 17.25C16.0625 17.25 15.9219 17.2031 15.8281 17.0625L14.9375 16.1719C14.7969 16.0781 14.75 15.9375 14.75 15.75C14.75 15.6094 14.7969 15.4688 14.9375 15.375L20.2344 10.2188H8.5625C8.375 10.2188 8.23438 10.1719 8.14062 10.0781C8.04688 9.98438 8 9.84375 8 9.65625V8.34375C8 8.20312 8.04688 8.0625 8.14062 7.96875C8.23438 7.875 8.375 7.78125 8.5625 7.78125H20.2344L14.9375 2.625C14.7969 2.53125 14.75 2.4375 14.75 2.25C14.75 2.10938 14.7969 1.96875 14.9375 1.82812L15.8281 0.890625Z" fill="#ffffff" fill-opacity="0.9"/>
</svg>
