<svg width="26" height="23" viewBox="0 0 26 23" fill="none" xmlns="http://www.w3.org/2000/svg">
<path d="M0.5 5.375C0.5 5.57031 0.548828 5.7168 0.646484 5.81445C0.744141 5.91211 0.890625 5.96094 1.08594 5.96094H5.82227L10.0215 10.4531L11.0469 9.33008L6.70117 4.59375C6.55469 4.49609 6.4082 4.39844 6.26172 4.39844H1.08594C0.890625 4.39844 0.744141 4.49609 0.646484 4.59375C0.548828 4.69141 0.5 4.83789 0.5 4.98438V5.375ZM25.0605 18.998C25.3535 18.7051 25.5 18.3145 25.5 17.875C25.5 17.4844 25.3535 17.0938 25.0605 16.752L21.9355 13.627C21.5938 13.334 21.2031 13.1875 20.8125 13.1875C20.373 13.1875 19.9824 13.334 19.6895 13.627C19.3965 13.9199 19.25 14.3105 19.25 14.75V17.2891H18.4199L14.2695 12.748L13.1953 13.9199L17.5898 18.6562C17.6875 18.8027 17.7852 18.8516 17.9805 18.8516H19.25V21C19.25 21.4883 19.3965 21.8301 19.6895 22.123C19.9824 22.416 20.373 22.5625 20.8125 22.5625C21.2031 22.5625 21.5938 22.416 21.9355 22.123L25.0605 18.998ZM24.084 17.7285C24.1816 17.8262 24.1816 17.9238 24.084 18.0215L20.959 21.1465C20.8613 21.2441 20.8125 21.2441 20.7148 21.1953C20.6172 21.1953 20.6172 21.0977 20.6172 21V14.75C20.6172 14.6523 20.6172 14.6035 20.7148 14.5547C20.8125 14.5547 20.8613 14.5547 20.959 14.6035L24.084 17.7285ZM25.0605 6.49805C25.3535 6.20508 25.5 5.81445 25.5 5.375C25.5 4.98438 25.3535 4.59375 25.0605 4.25195L21.9355 1.12695C21.5938 0.833984 21.2031 0.6875 20.8125 0.6875C20.373 0.6875 19.9824 0.833984 19.6895 1.12695C19.3965 1.41992 19.25 1.81055 19.25 2.25V4.39844H17.9805C17.7852 4.39844 17.6387 4.49609 17.541 4.59375L5.82227 17.2891H1.08594C0.890625 17.2891 0.744141 17.3867 0.646484 17.4844C0.548828 17.582 0.5 17.7285 0.5 17.875V18.2656C0.5 18.4609 0.548828 18.6074 0.646484 18.7051C0.744141 18.8027 0.890625 18.8516 1.08594 18.8516H6.26172C6.4082 18.8516 6.55469 18.8027 6.70117 18.6562L18.4199 5.96094H19.25V8.5C19.25 8.98828 19.3965 9.33008 19.6895 9.62305C19.9824 9.91602 20.373 10.0625 20.8125 10.0625C21.2031 10.0625 21.5938 9.91602 21.9355 9.62305L25.0605 6.49805ZM24.084 5.22852C24.1816 5.32617 24.1816 5.42383 24.084 5.52148L20.959 8.64648C20.8613 8.74414 20.8125 8.74414 20.7148 8.69531C20.6172 8.69531 20.6172 8.59766 20.6172 8.5V2.25C20.6172 2.15234 20.6172 2.10352 20.7148 2.05469C20.8125 2.05469 20.8613 2.05469 20.959 2.10352L24.084 5.22852Z" fill="#00BBE4"/>
</svg>
