<svg width="159" height="74" viewBox="0 0 159 74" fill="none" xmlns="http://www.w3.org/2000/svg">
<path d="M74.504 32.8H76.584V42.24H82.44V44H74.504V32.8ZM89.111 44.16C87.9697 44.16 86.9403 43.9147 86.023 43.424C85.1057 42.9227 84.3857 42.2347 83.863 41.36C83.3403 40.4747 83.079 39.488 83.079 38.4C83.079 37.312 83.3403 36.3307 83.863 35.456C84.3857 34.5707 85.1057 33.8827 86.023 33.392C86.9403 32.8907 87.9697 32.64 89.111 32.64C90.2523 32.64 91.2817 32.8907 92.199 33.392C93.1163 33.8827 93.8363 34.5653 94.359 35.44C94.8817 36.3147 95.143 37.3013 95.143 38.4C95.143 39.4987 94.8817 40.4853 94.359 41.36C93.8363 42.2347 93.1163 42.9227 92.199 43.424C91.2817 43.9147 90.2523 44.16 89.111 44.16ZM89.111 42.336C89.8577 42.336 90.5297 42.1707 91.127 41.84C91.7243 41.4987 92.1937 41.0293 92.535 40.432C92.8763 39.824 93.047 39.1467 93.047 38.4C93.047 37.6533 92.8763 36.9813 92.535 36.384C92.1937 35.776 91.7243 35.3067 91.127 34.976C90.5297 34.6347 89.8577 34.464 89.111 34.464C88.3643 34.464 87.6923 34.6347 87.095 34.976C86.4977 35.3067 86.0283 35.776 85.687 36.384C85.3457 36.9813 85.175 37.6533 85.175 38.4C85.175 39.1467 85.3457 39.824 85.687 40.432C86.0283 41.0293 86.4977 41.4987 87.095 41.84C87.6923 42.1707 88.3643 42.336 89.111 42.336ZM104.996 38.272H106.964V42.736C106.388 43.1947 105.716 43.5467 104.948 43.792C104.18 44.0373 103.39 44.16 102.58 44.16C101.438 44.16 100.409 43.9147 99.4918 43.424C98.5744 42.9227 97.8544 42.2347 97.3318 41.36C96.8091 40.4853 96.5478 39.4987 96.5478 38.4C96.5478 37.3013 96.8091 36.3147 97.3318 35.44C97.8544 34.5653 98.5744 33.8827 99.4918 33.392C100.42 32.8907 101.46 32.64 102.612 32.64C103.55 32.64 104.404 32.7947 105.172 33.104C105.94 33.4133 106.585 33.8667 107.108 34.464L105.796 35.744C104.942 34.8907 103.913 34.464 102.708 34.464C101.918 34.464 101.214 34.6293 100.596 34.96C99.9878 35.2907 99.5078 35.7547 99.1558 36.352C98.8144 36.9493 98.6438 37.632 98.6438 38.4C98.6438 39.1467 98.8144 39.8187 99.1558 40.416C99.5078 41.0133 99.9878 41.4827 100.596 41.824C101.214 42.1653 101.913 42.336 102.692 42.336C103.566 42.336 104.334 42.144 104.996 41.76V38.272ZM114.939 44.16C113.798 44.16 112.768 43.9147 111.851 43.424C110.934 42.9227 110.214 42.2347 109.691 41.36C109.168 40.4747 108.907 39.488 108.907 38.4C108.907 37.312 109.168 36.3307 109.691 35.456C110.214 34.5707 110.934 33.8827 111.851 33.392C112.768 32.8907 113.798 32.64 114.939 32.64C116.08 32.64 117.11 32.8907 118.027 33.392C118.944 33.8827 119.664 34.5653 120.187 35.44C120.71 36.3147 120.971 37.3013 120.971 38.4C120.971 39.4987 120.71 40.4853 120.187 41.36C119.664 42.2347 118.944 42.9227 118.027 43.424C117.11 43.9147 116.08 44.16 114.939 44.16ZM114.939 42.336C115.686 42.336 116.358 42.1707 116.955 41.84C117.552 41.4987 118.022 41.0293 118.363 40.432C118.704 39.824 118.875 39.1467 118.875 38.4C118.875 37.6533 118.704 36.9813 118.363 36.384C118.022 35.776 117.552 35.3067 116.955 34.976C116.358 34.6347 115.686 34.464 114.939 34.464C114.192 34.464 113.52 34.6347 112.923 34.976C112.326 35.3067 111.856 35.776 111.515 36.384C111.174 36.9813 111.003 37.6533 111.003 38.4C111.003 39.1467 111.174 39.824 111.515 40.432C111.856 41.0293 112.326 41.4987 112.923 41.84C113.52 42.1707 114.192 42.336 114.939 42.336Z" fill="#00BBE4"/>
<path d="M41.8404 46.6696C41.8672 46.7634 41.9074 46.8973 41.7467 47.058C41.6395 47.1652 40.5949 47.8884 39.3627 48.0089C38.144 48.1161 36.4833 48.1964 35.4922 47.2857C35.3315 47.125 35.385 46.8973 35.4922 46.8036C35.6127 46.7098 35.6931 46.6429 35.8404 46.6429C35.9743 46.6429 35.9475 46.6429 36.0145 46.6964C36.4699 47.0446 37.1529 47.3527 38.5993 47.3527C40.0458 47.3527 41.0636 46.9375 41.519 46.6027C41.7333 46.442 41.8136 46.5759 41.8404 46.6696ZM41.3181 45.1295C41.4118 45.3571 41.3181 45.4911 41.1306 45.5848C40.9699 45.6652 40.9565 45.625 40.7958 45.3304C40.635 45.0357 40.5011 44.7411 39.7109 44.7411C38.9208 44.7411 38.6663 45.0223 38.2779 45.3304C37.9029 45.6518 37.7556 45.7589 37.6217 45.5848C37.4877 45.3973 37.5279 45.2232 37.7824 44.9955C38.0368 44.7679 38.4386 44.4062 38.827 44.2455C39.2154 44.0848 39.4163 44.1116 39.7779 44.1116C40.1395 44.1116 40.5279 44.1384 40.7958 44.3125C41.0636 44.5 41.2243 44.9018 41.3181 45.1295ZM46.0725 41.3661C46.0725 42.0759 45.8449 43.3348 45.3092 44.1384C44.76 44.9286 44.4252 45.2232 43.7824 45.1696C42.9654 45.1161 41.3449 42.558 40.3002 42.5179C38.9877 42.4777 36.135 45.2634 33.885 45.2634C32.5324 45.2634 32.1172 45.0759 31.6618 44.7679C30.9788 44.2991 30.6574 43.5625 30.6708 42.5714C30.6975 40.8036 32.3449 39.1429 34.4342 39.1295C37.0859 39.1027 38.9208 41.7545 40.2467 41.7277C41.385 41.7143 43.5547 39.4911 44.6261 39.4911C45.7645 39.4911 46.0725 40.6696 46.0725 41.3661ZM46.7824 39.2232C46.7824 33.2098 42.3359 30.4911 41.6127 30.0491C40.4208 29.2991 39.2824 29.0045 38.144 28.2545C37.4475 27.7857 36.4699 26.6473 35.6529 25.6696C35.5056 27.2366 35.0368 27.8795 34.4743 28.3214C33.3359 29.2321 32.6127 29.5134 31.6083 30.0491C30.7645 30.4911 26.2109 33.1964 26.2109 39.0357C26.2109 44.8884 31.1261 49.1875 36.5904 49.1875C42.0413 49.1875 46.7824 45.2232 46.7824 39.2232Z" fill="#00BBE4"/>
</svg>
